HIERARCHY
ROOT Hips
{
	OFFSET -14.64140 90.27770 -84.91600
	CHANNELS 6 Xposition Yposition Zposition Zrotation Xrotation Yrotation
	JOINT Spine
	{
		OFFSET 0.00000 13.20850 -1.60436
		CHANNELS 3 Zrotation Xrotation Yrotation
		JOINT Spine1
		{
			OFFSET 0.00000 8.61716 0.00000
			CHANNELS 3 Zrotation Xrotation Yrotation
			JOINT Spine2
			{
				OFFSET 0.00000 8.61717 0.00000
				CHANNELS 3 Zrotation Xrotation Yrotation
				JOINT Spine3
				{
					OFFSET 0.00000 8.61717 0.00000
					CHANNELS 3 Zrotation Xrotation Yrotation
					JOINT Neck
					{
						OFFSET 0.00000 11.07920 1.10792
						CHANNELS 3 Zrotation Xrotation Yrotation
						JOINT Neck1
						{
							OFFSET 0.00000 7.08032 0.00000
							CHANNELS 3 Zrotation Xrotation Yrotation
							JOINT Head
							{
								OFFSET 0.00000 7.08031 0.00000
								CHANNELS 3 Zrotation Xrotation Yrotation
								End site
								{
									OFFSET 0.00000 0.00000 0.00000
								}
							}
						}
					}
					JOINT RightShoulder
					{
						OFFSET -0.01000 7.91373 5.19711
						CHANNELS 3 Zrotation Xrotation Yrotation
						JOINT RightArm
						{
							OFFSET -18.41580 0.00000 0.00000
							CHANNELS 3 Zrotation Xrotation Yrotation
							JOINT RightForeArm
							{
								OFFSET -29.11090 0.00000 0.00000
								CHANNELS 3 Zrotation Xrotation Yrotation
								JOINT RightHand
								{
									OFFSET -24.65040 0.00000 0.00000
									CHANNELS 3 Zrotation Xrotation Yrotation
									JOINT RightHandThumb1
									{
										OFFSET -5.35114 -0.85590 3.97906
										CHANNELS 3 Zrotation Xrotation Yrotation
										JOINT RightHandThumb2
										{
											OFFSET -4.52789 0.00000 0.00000
											CHANNELS 3 Zrotation Xrotation Yrotation
											JOINT RightHandThumb3
											{
												OFFSET -2.46976 0.00000 0.00000
												CHANNELS 3 Zrotation Xrotation Yrotation
												End site
												{
													OFFSET 0.00000 0.00000 0.00000
												}
											}
										}
									}
									JOINT RightHandIndex1
									{
										OFFSET -14.26970 0.00000 2.88139
										CHANNELS 3 Zrotation Xrotation Yrotation
										JOINT RightHandIndex2
										{
											OFFSET -5.48836 0.00000 0.00000
											CHANNELS 3 Zrotation Xrotation Yrotation
											JOINT RightHandIndex3
											{
												OFFSET -3.01859 0.00000 0.00000
												CHANNELS 3 Zrotation Xrotation Yrotation
												End site
												{
													OFFSET 0.00000 0.00000 0.00000
												}
											}
										}
									}
									JOINT RightHandMiddle1
									{
										OFFSET -14.26970 0.00000 -0.09147
										CHANNELS 3 Zrotation Xrotation Yrotation
										JOINT RightHandMiddle2
										{
											OFFSET -6.17441 0.00000 0.00000
											CHANNELS 3 Zrotation Xrotation Yrotation
											JOINT RightHandMiddle3
											{
												OFFSET -3.56743 0.00000 0.00000
												CHANNELS 3 Zrotation Xrotation Yrotation
												End site
												{
													OFFSET 0.00000 0.00000 0.00000
												}
											}
										}
									}
									JOINT RightHandRing1
									{
										OFFSET -12.69180 0.00000 -3.06433
										CHANNELS 3 Zrotation Xrotation Yrotation
										JOINT RightHandRing2
										{
											OFFSET -5.62556 0.00000 0.00000
											CHANNELS 3 Zrotation Xrotation Yrotation
											JOINT RightHandRing3
											{
												OFFSET -3.56744 0.00000 0.00000
												CHANNELS 3 Zrotation Xrotation Yrotation
												End site
												{
													OFFSET 0.00000 0.00000 0.00000
												}
											}
										}
									}
									JOINT RightHandPinky1
									{
										OFFSET -11.11390 0.00000 -6.03719
										CHANNELS 3 Zrotation Xrotation Yrotation
										JOINT RightHandPinky2
										{
											OFFSET -4.52789 0.00000 0.00000
											CHANNELS 3 Zrotation Xrotation Yrotation
											JOINT RightHandPinky3
											{
												OFFSET -2.46976 0.00000 0.00000
												CHANNELS 3 Zrotation Xrotation Yrotation
												End site
												{
													OFFSET 0.00000 0.00000 0.00000
												}
											}
										}
									}
								}
							}
						}
					}
					JOINT LeftShoulder
					{
						OFFSET 0.01000 7.91373 5.19711
						CHANNELS 3 Zrotation Xrotation Yrotation
						JOINT LeftArm
						{
							OFFSET 18.41580 0.00000 0.00000
							CHANNELS 3 Zrotation Xrotation Yrotation
							JOINT LeftForeArm
							{
								OFFSET 29.11090 0.00000 0.00000
								CHANNELS 3 Zrotation Xrotation Yrotation
								JOINT LeftHand
								{
									OFFSET 24.65040 0.00000 0.00000
									CHANNELS 3 Zrotation Xrotation Yrotation
									JOINT LeftHandThumb1
									{
										OFFSET 5.35114 -0.85590 3.97906
										CHANNELS 3 Zrotation Xrotation Yrotation
										JOINT LeftHandThumb2
										{
											OFFSET 4.52789 0.00000 0.00000
											CHANNELS 3 Zrotation Xrotation Yrotation
											JOINT LeftHandThumb3
											{
												OFFSET 2.46977 0.00000 0.00000
												CHANNELS 3 Zrotation Xrotation Yrotation
												End site
												{
													OFFSET 0.00000 0.00000 0.00000
												}
											}
										}
									}
									JOINT LeftHandIndex1
									{
										OFFSET 14.26970 0.00000 2.88139
										CHANNELS 3 Zrotation Xrotation Yrotation
										JOINT LeftHandIndex2
										{
											OFFSET 5.48836 0.00000 0.00000
											CHANNELS 3 Zrotation Xrotation Yrotation
											JOINT LeftHandIndex3
											{
												OFFSET 3.01859 0.00000 0.00000
												CHANNELS 3 Zrotation Xrotation Yrotation
												End site
												{
													OFFSET 0.00000 0.00000 0.00000
												}
											}
										}
									}
									JOINT LeftHandMiddle1
									{
										OFFSET 14.26970 0.00000 -0.09147
										CHANNELS 3 Zrotation Xrotation Yrotation
										JOINT LeftHandMiddle2
										{
											OFFSET 6.17440 0.00000 0.00000
											CHANNELS 3 Zrotation Xrotation Yrotation
											JOINT LeftHandMiddle3
											{
												OFFSET 3.56744 0.00000 0.00000
												CHANNELS 3 Zrotation Xrotation Yrotation
												End site
												{
													OFFSET 0.00000 0.00000 0.00000
												}
											}
										}
									}
									JOINT LeftHandRing1
									{
										OFFSET 12.69180 0.00000 -3.06433
										CHANNELS 3 Zrotation Xrotation Yrotation
										JOINT LeftHandRing2
										{
											OFFSET 5.62556 0.00000 0.00000
											CHANNELS 3 Zrotation Xrotation Yrotation
											JOINT LeftHandRing3
											{
												OFFSET 3.56744 0.00000 0.00000
												CHANNELS 3 Zrotation Xrotation Yrotation
												End site
												{
													OFFSET 0.00000 0.00000 0.00000
												}
											}
										}
									}
									JOINT LeftHandPinky1
									{
										OFFSET 11.11390 0.00000 -6.03719
										CHANNELS 3 Zrotation Xrotation Yrotation
										JOINT LeftHandPinky2
										{
											OFFSET 4.52789 0.00000 0.00000
											CHANNELS 3 Zrotation Xrotation Yrotation
											JOINT LeftHandPinky3
											{
												OFFSET 2.46976 0.00000 0.00000
												CHANNELS 3 Zrotation Xrotation Yrotation
												End site
												{
													OFFSET 0.00000 0.00000 0.00000
												}
											}
										}
									}
								}
							}
						}
					}
					JOINT pCube4
					{
						OFFSET 0.00000 10.91090 1.10792
						CHANNELS 3 Zrotation Xrotation Yrotation
						End site
						{
							OFFSET 0.00000 0.00000 0.00000
						}
					}
				}
			}
		}
	}
	JOINT RightUpLeg
	{
		OFFSET -9.98441 0.00000 0.00000
		CHANNELS 3 Zrotation Xrotation Yrotation
		JOINT RightLeg
		{
			OFFSET 0.00000 -42.11790 0.00000
			CHANNELS 3 Zrotation Xrotation Yrotation
			JOINT RightFoot
			{
				OFFSET 0.00000 -45.00020 -0.00001
				CHANNELS 3 Zrotation Xrotation Yrotation
				JOINT RightForeFoot
				{
					OFFSET 0.00000 -3.74820 0.00000
					CHANNELS 3 Zrotation Xrotation Yrotation
					JOINT RightToeBase
					{
						OFFSET 0.00000 0.06325 14.43120
						CHANNELS 3 Zrotation Xrotation Yrotation
						End site
						{
							OFFSET 0.00000 0.00000 0.00000
						}
					}
				}
			}
		}
	}
	JOINT LeftUpLeg
	{
		OFFSET 9.98441 0.00000 0.00000
		CHANNELS 3 Zrotation Xrotation Yrotation
		JOINT LeftLeg
		{
			OFFSET 0.00000 -42.11800 0.00000
			CHANNELS 3 Zrotation Xrotation Yrotation
			JOINT LeftFoot
			{
				OFFSET 0.00000 -45.00070 0.00000
				CHANNELS 3 Zrotation Xrotation Yrotation
				JOINT LeftForeFoot
				{
					OFFSET 0.00000 -3.74824 0.00000
					CHANNELS 3 Zrotation Xrotation Yrotation
					JOINT LeftToeBase
					{
						OFFSET 0.00000 0.06325 14.43110
						CHANNELS 3 Zrotation Xrotation Yrotation
						End site
						{
							OFFSET 0.00000 0.00000 0.00000
						}
					}
				}
			}
		}
	}
}
MOTION
Frames: 4
Frame Time: 0.050000
-0.021734634105583843 -0.04417089489123022 -0.03571813405316373 -0.03936359455939333 -0.029786321929001575 -0.01216690355417384 -3.284974573434617 0.974124816932255 -0.7925228277546333 -0.9927366913009159 3.581099394555833 0.31378089383983887 -1.114022593601422 -1.8263122496768383 -3.564408215462351 0.4402864958798703 0.49160134172468906 -1.2166519761481793 -0.6907096401186678 11.508827551570274 0.5336036263182844 -0.2256709932813136 -1.05970369614241 1.129797280889381 -0.3709241635403096 -16.7762001355343 0.12266543099302606 -4.280610619277977 1.5724082339681973 -12.910208031379378 70.8886819081618 20.170081945996195 10.086380403650304 17.052319772936087 3.785105218267737 73.2841255391046 16.210936800585557 -0.3645133755633332 -3.5698271907926986 4.558452108053828 -0.14919606611089864 -1.5522663045056293 0.002980458543854315 0.013461710064614994 -56.280961927066144 -0.030504933834076098 0.0062388133157969036 -56.231361262408136 -38.73518137854857 -0.030261066200920478 -0.014362041682507539 -0.0060969977957130534 -0.025382116545933264 0.012583038470541586 0.0474949618850259 -0.004910527559967283 0.04909212977398684 -36.65728105442878 0.02895814364772886 -0.014541644019570463 -0.006988793212366244 -0.007690001863371281 0.04193149791500525 0.04749978576057821 0.026861037371851863 -0.005970185312141739 -19.754055031271402 -0.044456537608300026 0.005862568267432556 -0.03032670836980712 -0.01681394147691736 -0.03377725466127798 0.038831975613394194 0.0072152877566388435 -0.0014176361366709791 24.02133997650276 0.006990808600136305 0.002558350594829322 28.85596608513406 -0.034548391044485906 0.049003346857561504 28.86035406164159 -0.017583109796987968 -0.031309162574477 8.48827644618917 1.892794824849372 9.998788195410187 -64.04903180376418 21.243498707708376 -29.00150435142111 -44.95878441216763 0.34343697053302347 -74.84588008598907 -11.645761156156738 -4.306954734225345 3.5261160329625554 -0.47428642690563017 0.056596546408547985 -8.102814663861874 0.026196066734798462 0.00972806433312221 44.61467758544889 -0.04670109501378523 0.00800620916989035 44.56144315302933 12.474704974405654 0.017498586679224458 0.01797795094658186 0.0003954683148641524 0.04858518597678979 0.029824952232415956 -0.04486443088652587 -0.00447694905692028 -0.03542104087965879 11.109556434734664 -0.019365667430324987 0.0248805164860342 0.0392701188523586 0.00023578466191057247 0.015720553001618547 -0.013935891728709602 -0.00666149096739875 0.026916336760859923 4.755358816083222 -0.008322929718465974 -0.02539603727106107 0.0035953559510626576 0.014151373713983034 -0.03713024182059981 -0.025621493281012382 0.034906542789175564 -0.026549691675357714 -5.5858339516613915 -0.017155204360017603 0.014900730177525386 -6.714382058708739 -0.0069854214193949705 0.04544024819651761 -6.746846215568885 0.015275466955270545 -0.003491009597291301 -0.006376987128769531 -0.011589356082896175 0.0364491336129177 8.08760948117682 3.5136990530382057 -19.221617944382228 0.015412025155202303 10.391802311375095 0.03508854007851041 -5.667732961318855 -15.663528012530342 3.1769297024977 -0.04448029318514903 -0.006469033889556222 -0.04421251796940007 0.02056861205172844 4.7339502406276095 -0.02278663427937479 12.478067425304442 -8.193203096018228 6.845106777926195 0.037306689065034294 46.384096772548986 -0.027228394184047898 -4.329076122285738 -14.707798483718824 -3.835910377450056 -0.01093141496127136 0.032911831968669286 0.0011022084471398893 -0.03730406519160705 -10.733433813338864 -0.018380681911854217 
0.04224317019083905 0.0018832179583528664 0.03385208531961665 0.01051854883595073 -0.03209572662606768 -0.045415935304467525 -3.3668067030258024 0.8858543865670344 -0.766549691536851 -0.9610150918880808 3.5363421933798636 0.3457580464417529 -1.0887344640403511 -1.7947347137040244 -3.665993038109765 0.4366135389820957 0.4529742067924391 -1.2275107053942498 -0.7257215430940378 11.545851754945616 0.5857662897307595 -0.21298375499657954 -1.0525916708922114 1.3450733034926694 -0.3226946038340339 -16.776357271794744 0.09347750075731742 -4.145858862436705 1.6073295495036053 -12.870684221917797 71.06335288197761 20.22851884199368 10.32303846053948 19.819675986128164 3.73846016799242 73.96459447268873 16.20540777206851 -0.37527644007759975 -3.626945487255679 4.565439789334137 -0.10390540150520902 -1.5767351720888643 0.006669427807776929 0.047751978112430066 -56.206017963660265 0.00023952390041737464 0.019205730746177742 -56.260696253035576 -38.805925445801556 -0.03620632216985161 0.013270370987302884 0.016088029555982163 -0.00630455558331218 -0.014559416872015566 -0.02273237375137262 -0.039419331733667455 -0.011923978311887122 -36.66710158764655 0.028026019562533866 0.02301489267640078 0.01474611956292287 0.015819586998639595 -0.03275431886984564 -0.04526582488335546 0.034231976818347346 -0.023986334058057213 -19.749970580316823 0.045861591949662016 -0.003291063961708191 0.044848995502551434 0.02294062432954868 -0.03027344346970445 -0.021571482798857244 0.013088219012179351 -0.019245863123872213 24.046441205605415 -0.013606641034102307 0.030680541848419306 28.897219067736717 -0.0183816983052882 0.03705374540708766 28.89491462593764 0.002461414302447028 -0.01670446007170874 8.4802915442456 1.8574397741792974 9.94611617945043 -63.956229266808286 21.104327421037436 -29.517223941531316 -48.63218870571862 1.6083818105580554 -76.54085161226851 -12.06657692373915 -4.247932107329992 3.522167593787386 -0.4996161750347624 0.039585555993635904 -8.129947551829757 -0.047179835486931006 -0.004674130442352971 44.56457778528631 -0.03523762357987211 -0.024465645760205528 44.55871049733571 12.453173865136009 -0.04075235213367517 -0.018402194502859945 0.023454414689428722 0.006427431614807019 -0.03239905932833272 -0.04526150670684635 -0.008258210723411043 -0.03685089376233621 11.142140234381422 -0.014503991817726086 -0.017858421884045413 0.016207953605656366 -0.015383208727382832 0.0020290133174457564 -0.039005974857053115 0.008095309626747683 0.042485735875034875 4.7932505423984715 -0.006571914772056388 -0.001487756688438164 -0.01953316505215155 0.03716834889764114 0.044914447232314796 0.009465257959516776 0.03656104465173478 0.01204275774964709 -5.646647533500248 0.0004238390990228813 0.02686456531055329 -6.698135186362558 0.028836095582212787 0.03967666489423287 -6.724455988822783 0.012182585373478825 -0.015100119539974857 0.01367781062829984 -0.006458018435855668 -0.01209422200688843 8.078805419748702 3.53198666433323 -19.246909296157455 0.03818187315582606 10.368253230909053 0.03348345197869132 -5.606229413621334 -15.650169364966722 3.197809620695884 -0.03519517006341717 0.029624846435041964 -0.011402586034504619 -0.0320683689132449 4.731220956713608 0.0056265782291893395 12.413358296802988 -8.264745245765756 6.871182526970986 0.025448299282919716 46.37681445937556 0.000795922492212218 -4.28784843162421 -14.723630961938932 -3.8519066956368775 -0.015619578005002112 -0.006123166125847083 -0.01882814135632107 -0.011719603922830866 -10.763291308096989 0.039919242306281286 
-0.04604632817570965 -0.004796632098566414 0.02191569865130097 -0.031849134882149764 -0.014066607790040618 0.039791219035957774 -3.3208810671538953 0.8555532496813321 -0.8013093583276718 -1.0105224708620095 3.5096445350293703 0.3392870326543728 -1.078755088698924 -1.7907979850608895 -3.6429614649288204 0.42861105798113536 0.4770222466606635 -1.1492522118044661 -0.6930490595410382 11.51737820501069 0.6679672020534848 -0.2316370820715836 -1.0460929098458303 1.3079172956325622 -0.3521110815009368 -16.689946689928135 0.08536995714957571 -4.177535861382149 1.6109563911971037 -12.913773565736534 71.18337647678474 19.757958426706438 10.544372135244375 20.812909814436303 3.402380669242729 73.32264489132591 16.41027492556351 -0.30141801771345184 -3.8562364628290564 4.496888408089304 -0.1436577416511121 -1.6237513567173645 -0.020349107430113426 0.0011886214799464265 -56.19728688076502 -0.005628165281737701 -0.031516506952593844 -56.19206554194099 -38.80382114831384 0.0032069526462070366 -0.02556938600077549 0.039498951169352446 -0.04233898693234805 0.028550911392822606 -0.010968063898239365 0.025823441658837005 -0.03729534590812229 -36.72850391240348 -0.008786718582792457 0.04302902376654531 0.04354862542898035 0.007069626875986612 0.03291256755499485 0.044168980065924714 0.037633996522232094 0.000668938121036368 -19.74614764671742 0.03389596724983513 0.036863472166019755 0.012317402496003875 0.009196194670049009 -0.03896623661076121 -0.023034179863512364 0.0425142611676207 0.014053897785679819 24.04144556214069 0.0066979330690808804 0.04360280503725128 28.86486322218282 -0.02690282614308879 0.009352703930435793 28.883654472709477 -0.003656886871087092 -0.009569015421892046 8.535097880621759 1.8703370764134923 10.009560205066807 -63.928940337641606 21.08054417138221 -29.467418207938074 -50.880801532585636 1.7308607556012363 -77.52950515215653 -12.288139658349717 -4.56278375431492 3.785048529583082 -0.482790520823574 0.049856599985931636 -8.1163700278881 -0.015611140317195514 0.02168748280118456 44.57320992291329 0.0218741758689118 -0.03435244964157694 44.560861073630775 12.467366244549927 -0.031829226029758906 0.015378454255161864 -0.02233395968618131 0.03968140407865104 0.008474492197631096 -0.02890112581440962 -0.04914009932719936 -0.006592139377370567 11.094203489885137 -0.04299068427555579 -0.0400257359655013 0.04847878551977804 0.01034167054261773 -0.032985987144050995 -0.037458023407851565 0.017401763884290704 0.004787258416453824 4.760334077883737 -0.04331027149821121 0.02693760710877396 0.03563183531545321 -0.002466157432000884 -0.02423183052488667 -0.033270278979618005 -0.019249068703327692 -0.022247634013914868 -5.581061759937417 0.00931578752885931 -0.004256379146496005 -6.748572528547512 0.0004297930889972239 0.001381565778651115 -6.721267442956214 -0.010058925310232494 -0.034401124054604326 -0.03875306726844799 0.03408543239819641 -0.02412484688765604 8.059857956126029 3.507971973592243 -19.18835297841344 0.03623399389772851 10.443143286784741 0.054513876757378565 -5.665727874428782 -15.611285507548569 3.1700769228799652 0.02610352631964787 -0.0015158903554088473 0.030862916889562147 -0.009456386643402719 4.653853510369552 0.027172449149336447 12.473159393775276 -8.247010523076872 6.869577508096686 -0.004055606691139445 46.34077701822688 0.02939589337471599 -4.370920549495473 -14.753635619197551 -3.8122965699988254 0.016010807621286625 -0.010722473019170698 0.014698225776380091 -0.028199164187403532 -10.73830366675201 -0.019475595979450335 
0.03820843444490894 0.017085579987673707 0.034635563586056295 -0.005021697967567476 -0.044570395919520694 -0.0015261067354455943 -3.367798152170001 0.8660195472172325 -0.7901181994672165 -0.9853876410279171 3.5274758915312914 0.3483611534994589 -1.1025656177658083 -1.7898367436540359 -3.591053430566635 0.4908990283498793 0.49982582665533765 -1.2177178423454336 -0.6517706024293121 11.56608244629129 0.5668161515909884 -0.20970598104953375 -1.037877550778912 1.1744838656209697 -0.2949648473267774 -16.681015411847667 0.15578566754129958 -4.296352246656198 1.6028437127810857 -12.930333274247472 71.24643458889138 19.149485865853247 10.600575405022818 21.485413277484106 2.677809875495747 72.16146277830073 16.70304171448742 -0.3135313326521638 -4.005996000584749 4.568336037678078 -0.12652020163898084 -1.5992714111616162 -0.037554673190754624 0.010451255437544686 -56.2782857327421 -0.020511532214959695 0.007345333382946393 -56.254438386614794 -38.77525879091738 -0.03961199955246471 0.028911164440802103 0.030582555687944837 0.03935677785391963 0.01696359418839529 0.00271803412843091 -0.013603562045295548 0.046010606502564125 -36.67056554108228 -0.02672895914612393 -0.0262251220126679 -0.02156648807322994 0.007943941720980022 -0.010967035479386373 0.04365544189534376 -0.03909675921831771 0.018022668161428234 -19.73088137416333 0.043779797521108055 -0.00980344081738759 -0.013041537509208959 0.04662287139039451 -0.04328659942317149 0.00477762186446672 0.018131909201174135 -0.00980515343862991 24.043971727918972 0.036839573170645935 -0.0219621837466552 28.856822220497833 -0.022722102431135763 -0.0026737413574638193 28.837402039739388 0.040956028901027335 0.024419394841214078 8.499376416919798 1.8277524666625844 10.051019414241248 -63.873694363688124 21.110757940422847 -29.216151902617916 -51.78450353647095 1.0579217021892555 -78.11780209154892 -12.254814353883507 -5.015895023398638 4.03231488395019 -0.49950716662340755 0.0932627109048951 -8.142339347141837 -0.04873413647126138 0.03954924650329075 44.595352289020724 0.03440564526850905 -0.04989345491173235 44.58709308437859 12.41608786470942 0.0036082510637520807 -0.03915673269635557 -0.016098504860543022 0.04060788295169374 -0.017266269864198838 0.0393764796795664 0.02206537073720064 0.0436846717769133 11.12613278974256 -0.04886098801054039 -0.027672629527537674 0.006646078662430721 0.04195541628524589 -0.006697017106135995 0.00892361483189064 0.020642957112452856 0.019679775452179527 4.794154859684323 0.040819480913567685 -0.007496990870614505 0.045976119923697115 -0.007154692426898509 0.038117698526344106 -0.00690606751444421 -0.03983775329905281 0.012927744534782808 -5.583424562483513 0.006899755793539346 -0.009390225884843813 -6.689526282097725 0.04806028547270373 0.039901206286886794 -6.734731923523911 0.0006291326978391852 -0.036853379274753094 -0.03594006736013922 -0.03292889803809525 0.023195398315774742 8.000459806765933 3.514646581715116 -19.18438927229878 -0.04949693684897601 10.427935482304651 -0.020168904932057103 -5.576568044414332 -15.666066087796896 3.1749118984704925 -0.023779116069114054 -0.03263857997446955 -0.026300744348640378 0.04754192740394248 4.6852935766622155 0.030225215237238034 12.42908468908164 -8.226998222073261 6.897838142306784 0.010109729551044338 46.34629743544126 -0.0038665610034811808 -4.35222881833541 -14.75099575645614 -3.8112972833798167 0.04621250481285946 0.020215054598521544 -0.04850808547734614 0.03740464562347362 -10.72550331747128 0.02574791963109077 
